<svg width="3298" height="3430" viewBox="0 0 3298 3430" fill="none" xmlns="http://www.w3.org/2000/svg">
<ellipse cx="1427.5" cy="836" rx="299.5" ry="300" fill="#FFFADD"/>
<ellipse cx="2159" cy="797.5" rx="140" ry="140.5" fill="#F7F7F7"/>
<circle cx="1883.5" cy="1461.5" r="482.5" fill="#30CDA7"/>
<ellipse cx="2540.5" cy="970.195" rx="339.5" ry="340" fill="#FF6565"/>
<path d="M2430.53 1086.37C2485.01 1180.72 2524.01 1271.85 2543.11 1342.8C2552.67 1378.32 2557.15 1408.45 2556.26 1431.26C2555.36 1454.42 2549.04 1468.12 2539.22 1473.78C2529.4 1479.45 2514.38 1478.08 2493.87 1467.28C2473.68 1456.65 2449.82 1437.7 2423.84 1411.66C2371.94 1359.64 2312.53 1280.3 2258.05 1185.95C2203.58 1091.6 2164.58 1000.48 2145.48 929.521C2135.91 893.998 2131.43 863.87 2132.32 841.065C2133.23 817.906 2139.55 804.206 2149.37 798.538C2159.18 792.87 2174.21 794.246 2194.72 805.043C2214.91 815.674 2238.76 834.618 2264.75 860.66C2316.65 912.68 2376.06 992.021 2430.53 1086.37Z" stroke="url(#paint0_linear_534_13524)" stroke-width="12"/>
<path d="M2577.01 1001.84C2675.26 1172.01 2745.7 1336.51 2780.23 1464.8C2797.51 1528.99 2805.71 1583.78 2804.08 1625.54C2802.43 1667.65 2790.92 1694.59 2770.99 1706.1C2751.06 1717.6 2721.97 1714.11 2684.67 1694.47C2647.7 1675.01 2604.35 1640.51 2557.4 1593.46C2463.56 1499.4 2356.32 1356.15 2258.07 1185.98C2159.82 1015.82 2089.39 851.319 2054.85 723.025C2037.57 658.834 2029.38 604.046 2031.01 562.289C2032.65 520.179 2044.17 493.235 2064.1 481.729C2084.03 470.223 2113.12 473.721 2150.41 493.353C2187.39 512.82 2230.74 547.313 2277.69 594.372C2371.53 688.426 2478.77 831.676 2577.01 1001.84Z" stroke="url(#paint1_linear_534_13524)" stroke-width="12"/>
<path d="M2784.55 881.625C2924.42 1123.88 3020.91 1360.33 3063.95 1546.66C3085.48 1639.87 3093.55 1720.19 3087.19 1782.28C3080.81 1844.54 3060.1 1887.11 3025.5 1907.09C2990.9 1927.06 2943.68 1923.71 2886.57 1898.11C2829.62 1872.57 2764.09 1825.42 2694.14 1760.17C2554.29 1629.74 2397.77 1427.95 2257.9 1185.69C2118.03 943.43 2021.54 706.979 1978.5 520.649C1956.97 427.446 1948.9 347.127 1955.26 285.035C1961.64 222.775 1982.35 180.204 2016.95 160.228C2051.55 140.251 2098.77 143.603 2155.88 169.208C2212.84 194.744 2278.36 241.893 2348.31 307.139C2488.16 437.576 2644.69 639.367 2784.55 881.625Z" stroke="url(#paint2_linear_534_13524)" stroke-width="12"/>
<path d="M2339.28 1139.14C2369.76 1191.94 2392.15 1242.51 2403.78 1281.51C2409.6 1301.05 2412.63 1317.36 2412.75 1329.45C2412.89 1342.09 2409.88 1347.72 2406.65 1349.58C2403.42 1351.45 2397.05 1351.24 2386.16 1344.8C2375.76 1338.65 2363.14 1327.88 2349.13 1313.06C2321.17 1283.49 2288.57 1238.81 2258.09 1186.02C2227.61 1133.23 2205.22 1082.65 2193.59 1043.66C2187.77 1024.11 2184.74 1007.8 2184.62 995.715C2184.48 983.069 2187.49 977.444 2190.72 975.58C2193.95 973.717 2200.32 973.922 2211.21 980.362C2221.61 986.516 2234.23 997.288 2248.24 1012.11C2276.2 1041.67 2308.8 1086.35 2339.28 1139.14Z" stroke="url(#paint3_linear_534_13524)" stroke-width="12"/>
<path d="M2308.71 1277.21C2421.25 1472.15 2476.08 1675.47 2474.01 1846.43C2471.93 2017.55 2412.96 2155.06 2299.35 2220.66C2185.73 2286.25 2037.16 2268.56 1887.93 2184.81C1738.83 2101.12 1590.17 1951.98 1477.62 1757.04C1365.07 1562.1 1310.24 1358.78 1312.32 1187.81C1314.39 1016.7 1373.36 879.183 1486.98 813.588C1600.59 747.993 1749.17 765.683 1898.39 849.44C2047.49 933.124 2196.16 1082.27 2308.71 1277.21Z" stroke="url(#paint4_linear_534_13524)" stroke-width="12"/>
<path d="M2307.89 1277.64C2460.26 1541.55 2528.33 1820.51 2515.47 2058.01C2502.6 2295.57 2408.89 2490.83 2238.63 2589.14C2068.36 2687.44 1852.4 2670.96 1640.23 2563.32C1428.13 2455.71 1220.58 2257.29 1068.21 1993.38C915.836 1729.46 847.772 1450.51 860.632 1213.01C873.496 975.451 967.204 780.183 1137.47 681.879C1307.74 583.576 1523.7 600.056 1735.86 707.696C1947.97 815.307 2155.52 1013.73 2307.89 1277.64Z" stroke="url(#paint5_linear_534_13524)" stroke-width="12"/>
<path d="M2308.01 1276.93C2503.56 1615.65 2590.96 1973.73 2574.45 2278.7C2557.93 2583.72 2437.58 2834.8 2218.55 2961.25C1999.53 3087.71 1721.92 3066.4 1449.49 2928.19C1177.13 2790.01 910.721 2535.28 715.165 2196.56C519.609 1857.85 432.211 1499.77 448.725 1194.8C465.242 889.772 585.59 638.699 804.618 512.243C1023.65 385.788 1301.26 407.1 1573.68 545.31C1846.04 683.491 2112.45 938.221 2308.01 1276.93Z" stroke="url(#paint6_linear_534_13524)" stroke-width="12"/>
<path d="M2308.34 1276.95C2394.44 1426.08 2445.59 1576.23 2458.87 1698.28C2465.5 1759.31 2462.64 1813.03 2450.17 1855.98C2437.72 1898.88 2415.8 1930.69 2384.51 1948.75C2353.22 1966.82 2314.72 1969.9 2271.33 1959.23C2227.91 1948.55 2179.96 1924.18 2130.42 1887.91C2031.36 1815.39 1926.9 1696.02 1840.8 1546.89C1754.7 1397.76 1703.55 1247.61 1690.28 1125.56C1683.64 1064.52 1686.5 1010.81 1698.97 967.863C1711.42 924.955 1733.34 893.153 1764.63 875.088C1795.92 857.023 1834.42 853.943 1877.81 864.609C1921.24 875.286 1969.19 899.664 2018.72 935.93C2117.78 1008.45 2222.25 1127.82 2308.34 1276.95Z" stroke="url(#paint7_linear_534_13524)" stroke-width="12"/>
<path d="M2307.94 1276.52C2369.82 1383.69 2413.21 1487.74 2433.44 1569.23C2443.56 1610.01 2447.79 1644.79 2445.82 1671.34C2443.84 1698.14 2435.7 1714.95 2422.84 1722.38C2409.99 1729.8 2391.35 1728.44 2367.16 1716.76C2343.18 1705.19 2315.17 1684.13 2284.91 1654.98C2224.46 1596.72 2156.05 1507.11 2094.17 1399.95C2032.3 1292.78 1988.91 1188.73 1968.68 1107.24C1958.56 1066.46 1954.33 1031.67 1956.29 1005.12C1958.28 978.331 1966.42 961.515 1979.27 954.092C1992.13 946.669 2010.76 948.031 2034.96 959.707C2058.94 971.278 2086.95 992.336 2117.2 1021.49C2177.66 1079.75 2246.07 1169.36 2307.94 1276.52Z" stroke="url(#paint8_linear_534_13524)" stroke-width="12"/>
<defs>
<linearGradient id="paint0_linear_534_13524" x1="2146.37" y1="793.342" x2="2542.22" y2="1478.98" gradientUnits="userSpaceOnUse">
<stop offset="0.0520833" stop-color="#FFDA93"/>
<stop offset="0.489583" stop-color="#FFAA46"/>
<stop offset="1" stop-color="white"/>
</linearGradient>
<linearGradient id="paint1_linear_534_13524" x1="2061.1" y1="476.533" x2="2773.99" y2="1711.29" gradientUnits="userSpaceOnUse">
<stop offset="0.0520833" stop-color="#FFDA93"/>
<stop offset="0.489583" stop-color="#FFAA46"/>
<stop offset="1" stop-color="white"/>
</linearGradient>
<linearGradient id="paint2_linear_534_13524" x1="2013.95" y1="155.032" x2="3028.5" y2="1912.28" gradientUnits="userSpaceOnUse">
<stop offset="0.0520833" stop-color="#FFDA93"/>
<stop offset="0.489583" stop-color="#FFAA46"/>
<stop offset="1" stop-color="white"/>
</linearGradient>
<linearGradient id="paint3_linear_534_13524" x1="2187.72" y1="970.384" x2="2409.65" y2="1354.78" gradientUnits="userSpaceOnUse">
<stop offset="0.0520833" stop-color="#FFDA93"/>
<stop offset="0.489583" stop-color="#FFAA46"/>
<stop offset="1" stop-color="white"/>
</linearGradient>
<linearGradient id="paint4_linear_534_13524" x1="1483.98" y1="808.392" x2="2302.35" y2="2225.85" gradientUnits="userSpaceOnUse">
<stop offset="0.0520833" stop-color="#FFDA93"/>
<stop offset="0.489583" stop-color="#FFAA46"/>
<stop offset="1" stop-color="white"/>
</linearGradient>
<linearGradient id="paint5_linear_534_13524" x1="1134.47" y1="676.683" x2="2241.63" y2="2594.33" gradientUnits="userSpaceOnUse">
<stop offset="0.0520833" stop-color="#FFDA93"/>
<stop offset="0.489583" stop-color="#FFAA46"/>
<stop offset="1" stop-color="white"/>
</linearGradient>
<linearGradient id="paint6_linear_534_13524" x1="801.618" y1="507.047" x2="2221.55" y2="2966.45" gradientUnits="userSpaceOnUse">
<stop offset="0.0520833" stop-color="#FFDA93"/>
<stop offset="0.489583" stop-color="#FFAA46"/>
<stop offset="1" stop-color="white"/>
</linearGradient>
<linearGradient id="paint7_linear_534_13524" x1="1761.63" y1="869.891" x2="2387.51" y2="1953.95" gradientUnits="userSpaceOnUse">
<stop offset="0.0520833" stop-color="#FFDA93"/>
<stop offset="0.489583" stop-color="#FFAA46"/>
<stop offset="1" stop-color="white"/>
</linearGradient>
<linearGradient id="paint8_linear_534_13524" x1="1976.27" y1="948.896" x2="2425.84" y2="1727.57" gradientUnits="userSpaceOnUse">
<stop offset="0.0520833" stop-color="#FFDA93"/>
<stop offset="0.489583" stop-color="#FFAA46"/>
<stop offset="1" stop-color="white"/>
</linearGradient>
</defs>
</svg>
